HIERARCHY
ROOT Hips
{
 OFFSET 0.000000 0.000000 0.000000
 CHANNELS 6 Xposition Yposition Zposition Yrotation Xrotation Zrotation
 JOINT Chest
 {
  OFFSET 0.000000 10.746160 -1.194018
  CHANNELS 3 Yrotation Xrotation Zrotation
  JOINT Chest2
  {
   OFFSET 0.000000 12.000952 0.000000
   CHANNELS 3 Yrotation Xrotation Zrotation
   JOINT Chest3
   {
    OFFSET 0.000000 10.955889 0.007153
    CHANNELS 3 Yrotation Xrotation Zrotation
    JOINT Chest4
    {
     OFFSET 0.000000 10.943662 0.007160
     CHANNELS 3 Yrotation Xrotation Zrotation
     JOINT Neck
     {
      OFFSET 0.000000 15.318994 0.000000
      CHANNELS 3 Yrotation Xrotation Zrotation
      JOINT Head
      {
       OFFSET 0.000000 10.186769 -0.015382
       CHANNELS 3 Yrotation Xrotation Zrotation
       End Site
       {
        OFFSET 0.000000 18.952433 -0.002069
       }
      }
     }
     JOINT RightCollar
     {
      OFFSET -3.317303 8.582813 0.000000
      CHANNELS 3 Yrotation Xrotation Zrotation
      JOINT RightShoulder
      {
       OFFSET -15.362413 0.000000 0.000000
       CHANNELS 3 Yrotation Xrotation Zrotation
       JOINT RightElbow
       {
        OFFSET -32.793178 0.000000 0.000000
        CHANNELS 3 Yrotation Xrotation Zrotation
        JOINT RightWrist
        {
         OFFSET -26.822736 0.000000 0.000000
         CHANNELS 3 Yrotation Xrotation Zrotation
         JOINT Prop1
         {
          OFFSET -9.870317 -1.096702 2.193404
          CHANNELS 3 Yrotation Xrotation Zrotation
          End Site
          {
           OFFSET 0.000000 0.000000 62.920279
          }
         }
         End Site
         {
          OFFSET -20.069644 0.000000 0.000000
         }
        }
       }
      }
     }
     JOINT LeftCollar
     {
      OFFSET 3.317303 8.582813 0.000000
      CHANNELS 3 Yrotation Xrotation Zrotation
      JOINT LeftShoulder
      {
       OFFSET 15.362413 0.000000 0.000000
       CHANNELS 3 Yrotation Xrotation Zrotation
       JOINT LeftElbow
       {
        OFFSET 32.793178 0.000000 0.000000
        CHANNELS 3 Yrotation Xrotation Zrotation
        JOINT LeftWrist
        {
         OFFSET 26.822736 0.000000 0.000000
         CHANNELS 3 Yrotation Xrotation Zrotation
         End Site
         {
          OFFSET 20.069644 0.000000 0.000000
         }
        }
       }
      }
     }
    }
   }
  }
 }
 JOINT RightHip
 {
  OFFSET -8.806587 -0.016299 0.001811
  CHANNELS 3 Yrotation Xrotation Zrotation
  JOINT RightKnee
  {
   OFFSET 0.000000 -45.769260 0.001691
   CHANNELS 3 Yrotation Xrotation Zrotation
   JOINT RightAnkle
   {
    OFFSET 0.000000 -44.761142 0.002851
    CHANNELS 3 Yrotation Xrotation Zrotation
    JOINT RightToe
    {
     OFFSET 0.000000 -7.166789 16.168133
     CHANNELS 3 Yrotation Xrotation Zrotation
     End Site
     {
      OFFSET 0.000000 -1.646291 7.024173
     }
    }
   }
  }
 }
 JOINT LeftHip
 {
  OFFSET 8.806587 -0.018715 0.002079
  CHANNELS 3 Yrotation Xrotation Zrotation
  JOINT LeftKnee
  {
   OFFSET 0.000000 -45.769260 0.001691
   CHANNELS 3 Yrotation Xrotation Zrotation
   JOINT LeftAnkle
   {
    OFFSET 0.000000 -44.761142 0.002851
    CHANNELS 3 Yrotation Xrotation Zrotation
    JOINT LeftToe
    {
     OFFSET 0.000000 -7.166789 16.168133
     CHANNELS 3 Yrotation Xrotation Zrotation
     End Site
     {
      OFFSET 0.000000 -1.646291 7.024173
     }
    }
   }
  }
 }
}
MOTION
Frames: 10
Frame Time: 0.016667
1.728377 87.650666 -21.603466 -19.713420 39.710758 -5.876592 -1.798820 22.677624 -1.488389 -0.652193 4.258356 -0.551322 -0.660533 10.078407 -0.618554 -0.531010 13.395991 -0.460356 2.286729 2.283280 1.777184 3.681572 -31.794932 2.283612 14.508830 7.884084 -7.033373 71.456584 -80.059214 -1.604789 29.920107 -19.099997 -1.400693 5.985511 -1.386391 4.480992 -28.644163 1.381599 2.757990 -8.443809 5.404461 -3.311545 -61.346393 -62.901370 -0.509882 -33.744071 -23.018564 3.806737 -0.682545 -4.669327 3.617249 -44.428131 -73.008026 33.370276 -1.911768 50.635549 6.122044 -6.429739 -12.530779 0.018373 0.000327 -0.045324 -0.825534 -37.913949 -77.392508 39.715770 1.096680 53.878122 -4.575396 5.979161 -12.599949 1.184611 -0.002062 -1.091647 0.216424
1.678370 87.685937 -21.589015 -19.535236 39.798973 -5.679856 -1.855220 22.587747 -1.529998 -0.673508 4.218742 -0.566955 -0.682071 10.038761 -0.636376 -0.548234 13.366286 -0.473608 2.266931 2.185078 1.822509 3.612062 -31.977964 2.390273 14.921153 7.991437 -6.977764 70.327141 -80.066128 -1.081944 29.772750 -19.792380 -0.935974 6.182548 -1.355607 4.263164 -28.845674 1.832738 2.321538 -8.698882 5.455743 -3.385488 -61.278069 -63.051975 -0.330349 -33.673527 -23.191538 3.275425 -1.032140 -4.894335 4.542787 -44.040730 -73.199996 32.898355 -2.027103 50.661147 6.151754 -6.497771 -12.552049 -0.044107 0.000366 -0.063409 -0.833901 -37.451845 -77.439324 39.257721 1.119817 53.703925 -4.681451 5.821817 -12.507055 1.205674 -0.002752 -1.123723 0.280618
1.642455 87.738153 -21.567498 -19.339766 39.854190 -5.445564 -1.943869 22.469715 -1.582399 -0.708181 4.166795 -0.585865 -0.717120 9.986772 -0.658849 -0.575848 13.327345 -0.490192 2.262994 2.092288 1.857913 3.581951 -32.150682 2.466230 15.409674 8.094303 -6.969730 68.695756 -80.023578 -0.068021 29.509725 -20.323500 -0.460974 6.502006 -1.356579 3.591168 -29.107195 2.331899 2.316593 -8.941904 5.532360 -3.509121 -61.214031 -63.220544 -0.096312 -33.531237 -23.346503 2.615583 -1.490585 -5.065850 5.631612 -43.509853 -73.359390 32.273310 -2.095433 50.641868 6.181545 -6.588857 -12.561480 -0.106133 0.000477 -0.082753 -0.727903 -36.582863 -77.457810 38.402120 1.167891 53.465047 -4.791485 5.606529 -12.407895 1.232022 -0.003767 -1.139384 0.378820
1.606045 87.816679 -21.548138 -19.194636 39.868671 -5.244432 -2.004798 22.335260 -1.630700 -0.731149 4.107470 -0.604513 -0.740299 9.927423 -0.679850 -0.594525 13.282873 -0.505861 2.259715 2.002960 1.884241 3.558835 -32.316851 2.522847 15.775875 7.910995 -6.972983 65.725753 -80.026283 2.464433 29.058575 -20.515158 0.143525 6.880852 -1.346826 2.847920 -29.312385 2.687736 2.533885 -9.139823 5.454825 -3.602945 -60.769553 -63.375957 -0.372987 -33.267779 -23.235378 1.956014 -1.996386 -5.277288 6.593145 -42.799994 -73.440679 31.533581 -2.151398 50.521086 6.176757 -6.693530 -12.517656 -0.157494 0.000557 -0.102687 -0.621740 -35.652908 -77.392693 37.490807 1.201781 53.170959 -4.901213 5.448183 -12.292143 1.256149 -0.004557 -1.148207 0.454789
1.568240 87.920969 -21.536616 -19.129886 39.830492 -5.100801 -2.015286 22.177894 -1.667982 -0.733053 4.037747 -0.621033 -0.742131 9.857697 -0.696545 -0.597022 13.230589 -0.518611 2.255096 1.925541 1.896907 3.541532 -32.460758 2.551671 15.914700 7.200308 -6.991936 60.343148 -80.112110 7.720086 28.299629 -20.136591 0.992601 7.334567 -1.301457 2.097951 -29.419092 2.792189 3.009390 -9.278839 5.103839 -3.631739 -59.628250 -63.531314 -1.554403 -32.832622 -22.673090 1.288692 -2.541858 -5.586445 7.330095 -41.886837 -73.428157 30.689629 -2.185501 50.281326 6.129590 -6.825096 -12.401832 -0.197832 0.000590 -0.124264 -0.544053 -34.858421 -77.211659 36.718688 1.201619 52.831084 -5.032608 5.402422 -12.161765 1.273840 -0.004949 -1.150651 0.492845
1.529940 88.051569 -21.527250 -19.116137 39.752171 -4.990912 -1.997868 22.004242 -1.701102 -0.723139 3.960665 -0.637221 -0.731990 9.780627 -0.711694 -0.590502 13.172781 -0.530384 2.251333 1.851569 1.900375 3.531949 -32.598152 2.560561 15.928919 6.204373 -7.026171 53.517019 -80.106259 14.585750 27.374269 -19.404832 1.947433 7.839149 -1.245320 1.272841 -29.471729 2.754434 3.710764 -9.372494 4.599111 -3.630074 -58.079013 -63.654572 -3.266224 -32.294613 -21.838317 0.635962 -3.125142 -5.942914 7.946084 -40.817759 -73.334214 29.754031 -2.206744 49.940329 6.047384 -6.970007 -12.232617 -0.227866 0.000596 -0.146476 -0.466214 -34.039708 -76.947663 35.927365 1.189252 52.435382 -5.160913 5.413379 -12.015249 1.289597 -0.005088 -1.146235 0.508667
1.479258 88.219485 -21.512215 -19.131820 39.663050 -4.913301 -1.960810 21.845866 -1.735899 -0.704360 3.890310 -0.654972 -0.712889 9.710298 -0.727500 -0.577326 13.120020 -0.542798 2.239255 1.753709 1.908778 3.501673 -32.779955 2.585177 15.930290 5.366070 -7.035712 47.772993 -79.883756 20.326996 26.582943 -18.823358 2.765061 8.273127 -1.214092 0.557865 -29.487498 2.703749 4.328903 -9.429090 4.120575 -3.621874 -56.663005 -63.660545 -4.907611 -31.778973 -21.030802 0.166130 -3.689334 -6.288128 8.452108 -39.674836 -73.156174 28.778347 -2.276252 49.494122 5.919582 -7.078589 -12.024783 -0.238894 0.000602 -0.165536 -0.416523 -33.023421 -76.645138 34.944014 1.187327 51.963914 -5.212058 5.428477 -11.837560 1.309191 -0.004919 -1.143133 0.493061
1.409635 88.436127 -21.490070 -19.178445 39.574079 -4.875281 -1.887295 21.722180 -1.775070 -0.668942 3.835259 -0.676091 -0.676962 9.655296 -0.744964 -0.551664 13.078738 -0.556731 2.205328 1.610542 1.928542 3.417647 -33.046019 2.648011 15.957199 4.848292 -6.989015 44.579906 -79.428210 23.394058 25.955335 -18.635724 3.311411 8.614415 -1.240018 0.029800 -29.439482 2.668085 4.800675 -9.472942 3.747030 -3.607261 -55.798820 -63.459135 -6.094126 -31.220882 -20.279625 0.024322 -4.275112 -6.651596 8.822322 -38.480501 -72.883894 27.780228 -2.444629 48.924404 5.726428 -7.105144 -11.776652 -0.219485 0.000653 -0.178767 -0.418495 -31.695758 -76.321465 33.650719 1.179259 51.397995 -5.144877 5.446532 -11.615547 1.341083 -0.004233 -1.146258 0.423171
1.327629 88.690085 -21.462255 -19.254196 39.474334 -4.869228 -1.794291 21.613830 -1.815766 -0.624719 3.786942 -0.698648 -0.632140 9.607030 -0.762958 -0.519386 13.042487 -0.571195 2.162593 1.443538 1.952861 3.311605 -33.356346 2.726511 15.970842 4.487922 -6.917142 42.582825 -78.884182 25.238351 25.446841 -18.610577 3.741019 8.888584 -1.292830 -0.387121 -29.353906 2.617427 5.189068 -9.480812 3.399742 -3.586304 -55.105090 -63.156656 -7.181064 -30.673499 -19.562257 0.059371 -4.839206 -7.009237 9.083524 -37.247175 -72.526109 26.776859 -2.655083 48.248860 5.494124 -7.095539 -11.490084 -0.180500 0.000739 -0.188781 -0.448611 -30.216169 -75.952839 32.211290 1.177815 50.756416 -5.003736 5.468341 -11.362325 1.376948 -0.003232 -1.150742 0.321858
1.241039 88.958143 -21.425267 -19.332519 39.360258 -4.871322 -1.740837 21.494065 -1.855594 -0.598105 3.733687 -0.719017 -0.605159 9.553798 -0.780573 -0.500427 13.002527 -0.585074 2.141909 1.289600 1.976470 3.252599 -33.642337 2.789346 15.968597 4.238747 -6.873424 40.186974 -78.464863 27.520767 25.228994 -18.548757 4.259956 9.051412 -1.314291 -0.732811 -29.325118 2.593701 5.373831 -9.388736 3.022371 -3.581798 -53.936480 -62.966283 -8.664211 -30.433034 -19.100002 -0.019016 -5.201404 -7.220059 9.314483 -36.034664 -72.110014 25.811842 -2.810041 47.517767 5.278362 -7.137408 -11.185201 -0.147132 0.000810 -0.199732 -0.464603 -28.813988 -75.523261 30.868481 1.247494 50.075499 -4.846487 5.444636 -11.102324 1.396854 -0.002494 -1.150068 0.248503
